<?xml version="1.0"?>
<svg xmlns="http://www.w3.org/2000/svg" xmlns:xlink="http://www.w3.org/1999/xlink" xmlns:svgjs="http://svgjs.com/svgjs" version="1.1" width="512" height="512" x="0" y="0" viewBox="0 0 323.358 323.358" style="enable-background:new 0 0 512 512" xml:space="preserve" class=""><g><g xmlns="http://www.w3.org/2000/svg"><g><path d="m48.863 323.358h225.632c23.653 0 42.875-19.222 42.875-42.875v-213.656c0-23.653-19.222-42.875-42.875-42.875h-17.006v-11.976c0-6.587-5.39-11.976-11.977-11.976s-11.976 5.389-11.976 11.976v11.976h-143.714v-11.976c0-6.587-5.39-11.976-11.977-11.976s-11.976 5.389-11.976 11.976v11.976h-17.006c-23.653 0-42.875 19.222-42.875 42.875v213.656c0 23.653 19.222 42.875 42.875 42.875zm-18.922-256.531c0-10.419 8.503-18.922 18.922-18.922h17.006v11.976c0 6.587 5.389 11.976 11.976 11.976s11.976-5.389 11.976-11.976v-11.976h143.715v11.976c0 6.587 5.389 11.976 11.976 11.976s11.976-5.389 11.976-11.976v-11.976h17.006c10.419 0 18.922 8.503 18.922 18.922v213.656c0 10.419-8.503 18.922-18.922 18.922h-225.631c-10.419 0-18.922-8.503-18.922-18.922z" fill="#f2ae00" data-original="#000000"/><circle cx="92.816" cy="122.756" r="14.97" fill="#f2ae00" data-original="#000000"/><circle cx="158.685" cy="122.756" r="14.97" fill="#f2ae00" data-original="#000000"/><circle cx="224.554" cy="122.756" r="14.97" fill="#f2ae00" data-original="#000000"/><circle cx="92.816" cy="182.637" r="14.97" fill="#f2ae00" data-original="#000000"/><circle cx="92.816" cy="242.518" r="14.97" fill="#f2ae00" data-original="#000000"/><path d="m227.548 167.667h-65.869c-6.587 0-11.976 5.389-11.976 11.976v65.869c0 6.587 5.389 11.976 11.976 11.976h65.869c6.587 0 11.976-5.389 11.976-11.976v-65.869c0-6.587-5.389-11.976-11.976-11.976zm-11.976 65.869h-41.917v-41.917h41.917z" fill="#f2ae00" data-original="#000000"/></g></g></g></svg>
