<svg fill="none" height="24" viewBox="0 0 24 24" width="24" xmlns="http://www.w3.org/2000/svg"><path d="m2 12.06c.00056 2.396.85047 4.7132 2.39696 6.5352 1.54649 1.8219 3.68815 3.0292 6.04004 3.4047v-7.0321h-2.537v-2.9078h2.54v-2.21361c-.0561-.51809.0019-1.04225.1698-1.53525s.4417-.94275.8018-1.3173c.3602-.37456.7979-.66474 1.282-.84992.4842-.18519 1.0029-.26084 1.5194-.22158.75.01207 1.5.07948 2.24.20123v2.47416h-1.264c-.2148-.02831-.4332-.00768-.6391.06036-.2058.06803-.3938.18174-.5501.33272s-.2769.33537-.3528.53954c-.076.20416-.1054.4229-.086.64005v1.8896h2.771l-.443 2.9088h-2.328v7.0311c1.8876-.3002 3.6502-1.1383 5.0792-2.4151 1.4289-1.2767 2.4643-2.9388 2.9836-4.7893.5192-1.8504.5006-3.8119-.0536-5.65209-.5543-1.84018-1.621-3.48204-3.0738-4.73118-1.4529-1.24915-3.2311-2.05326-5.124-2.31715-1.893-.26388-3.82148.02352-5.55715.82818s-3.20583 2.09287-4.23645 3.71213c-1.03061 1.61925-1.5785 3.50171-1.5788 5.42461z" fill="#b6b6b6"/></svg>