<?xml version="1.0" encoding="UTF-8"?><svg xmlns="http://www.w3.org/2000/svg" viewBox="0 0 80 80"><defs><style>.d{fill:#fff;fill-rule:evenodd;}.e{fill:#2c223b;}</style></defs><g id="a"/><g id="b"><g id="c"><g><g><circle class="e" cx="40" cy="40" r="39.5"/><path class="e" d="M40,1c21.5,0,39,17.5,39,39s-17.5,39-39,39S1,61.5,1,40,18.5,1,40,1m0-1C17.91,0,0,17.91,0,40s17.91,40,40,40,40-17.91,40-40S62.09,0,40,0h0Z"/></g><path class="d" d="M40.4,15.44c3.23,0,6.03,3.33,7.86,8.74-.74,.21-1.5,.43-2.26,.69-1.53-4.48-3.62-7.11-5.6-7.11-2.23,0-4.61,3.34-6.15,8.9,.6,.19,1.21,.4,1.83,.62,1.47,.54,2.91,1.14,4.33,1.8l.25-.12c1.04-.47,2.08-.91,3.15-1.32,2.79-1.07,5.48-1.83,7.94-2.24,5.3-.87,9.04,.03,10.5,2.55,1.47,2.52,.4,6.17-3.02,10.29-.2,.24-.4,.47-.61,.71-.53-.58-1.07-1.14-1.63-1.68,3.02-3.47,4.2-6.5,3.23-8.16-.92-1.57-3.94-2.1-8.09-1.42-.93,.15-1.84,.35-2.76,.59,.14,.61,.26,1.24,.37,1.9,.26,1.46,.45,3,.6,4.6,.72,.5,1.43,1.02,2.12,1.55,2.68,2.06,4.99,4.22,6.76,6.35,3.42,4.12,4.49,7.77,3.02,10.29-1.1,1.89-3.48,2.87-6.84,2.87-1.11,0-2.34-.11-3.65-.32-.34-.06-.69-.12-1.04-.19,.21-.72,.41-1.47,.58-2.25,.28,.05,.56,.11,.84,.15,4.15,.69,7.17,.15,8.09-1.42,1.11-1.91-.62-5.63-4.71-9.75-.42,.37-.83,.74-1.26,1.1-.06,.05-.13,.11-.19,.16-1.2,.99-2.44,1.93-3.72,2.82-.06,.71-.13,1.43-.22,2.14-1.27,10.19-5.03,17.19-9.72,17.19-3.23,0-6.02-3.32-7.86-8.72,.76-.2,1.52-.43,2.27-.68,1.52,4.46,3.61,7.09,5.59,7.09,2.23,0,4.61-3.35,6.16-8.92-.62-.19-1.23-.4-1.84-.62-1.46-.53-2.9-1.12-4.31-1.77l-.09,.04c-.82,.38-1.63,.72-2.42,1.05-.13,.05-.25,.1-.37,.14-4.58,1.83-8.76,2.78-12.09,2.78s-5.77-.94-6.91-2.89c-1.63-2.79-.09-6.88,3.76-11.18l1.64,1.71c-3.11,3.53-4.35,6.63-3.37,8.32,1.11,1.91,5.22,2.28,10.85,.83-.14-.63-.26-1.26-.37-1.89-.26-1.52-.46-3.06-.59-4.6-.71-.5-1.42-1.01-2.12-1.53-6.52-4.97-10.43-10.25-10.43-14.18,0-.91,.21-1.74,.64-2.49,1.62-2.78,5.91-3.51,11.55-2.38-.22,.73-.42,1.49-.59,2.28-4.64-.91-7.96-.42-8.94,1.26-1.11,1.91,.62,5.62,4.7,9.73,.53-.47,1.07-.94,1.64-1.4,1.15-.94,2.33-1.83,3.55-2.67,.06-.73,.14-1.45,.23-2.15,1.27-10.18,5.03-17.18,9.72-17.18h0Zm7.4,32.39c-.56,.36-1.14,.7-1.71,1.05-.88,.51-1.77,1-2.66,1.47l-.3,.16c1.31,.55,2.64,1.04,3.99,1.48,.14-.63,.26-1.29,.38-1.96,.12-.7,.22-1.44,.31-2.19h0Zm-14.82,0c.1,.78,.21,1.55,.34,2.28,.11,.65,.24,1.27,.37,1.87,.38-.12,.76-.25,1.15-.39,.12-.04,.24-.08,.35-.13,.83-.29,1.65-.61,2.46-.96h.02c-.8-.43-1.59-.86-2.37-1.3-.04-.02-.09-.04-.13-.07-.74-.42-1.47-.86-2.19-1.31h0Zm7.41-16.18c-1.33,.64-2.65,1.33-3.93,2.07-1.28,.73-2.54,1.51-3.77,2.34-.11,1.47-.16,2.93-.16,4.41s.06,2.99,.16,4.41c.68,.46,1.39,.91,2.12,1.36,1.81,1.11,3.67,2.13,5.58,3.05l.25-.12c.89-.43,1.78-.89,2.65-1.37,1.64-.9,3.24-1.87,4.8-2.92,.11-1.47,.16-2.93,.16-4.41,0-1.52-.05-2.99-.15-4.41-1.23-.82-2.48-1.6-3.77-2.34-1.28-.74-2.6-1.42-3.93-2.07h0Zm0,5.83c1.66,0,3.01,1.34,3.01,2.98s-1.35,2.98-3.01,2.98-3.01-1.34-3.01-2.98,1.35-2.98,3.01-2.98h0Zm10.14,.31c.03,.88,.05,1.77,.05,2.67v.66c0,.69-.03,1.36-.06,2.03,.6-.45,1.18-.91,1.73-1.36l.21-.17c.46-.39,.91-.77,1.34-1.16-1.05-.94-2.14-1.83-3.28-2.67h0Zm-20.28,0c-.54,.41-1.06,.81-1.56,1.22-.6,.49-1.17,.97-1.72,1.46,.4,.35,.8,.71,1.23,1.06,.65,.54,1.33,1.08,2.05,1.61-.03-.89-.05-1.78-.05-2.67,0-.22,0-.44,0-.65,0-.69,.02-1.36,.05-2.03h0Zm16.85-8.84c-1.28,.41-2.53,.87-3.77,1.39l-.21,.09c.79,.41,1.57,.84,2.37,1.29,.04,.02,.08,.04,.13,.07,.74,.42,1.47,.87,2.19,1.32-.09-.77-.21-1.53-.34-2.29-.11-.63-.23-1.25-.37-1.87h0Zm-13.41,0c-.29,1.37-.53,2.76-.7,4.15,.71-.45,1.45-.89,2.2-1.32l.11-.06c.78-.45,1.57-.88,2.37-1.29-.7-.29-1.4-.57-2.11-.84-.62-.23-1.25-.44-1.87-.64h0Z"/></g></g></g></svg>