<svg fill="none" height="24" viewBox="0 0 24 24" width="24" xmlns="http://www.w3.org/2000/svg"><path d="m21.593 7.20301c-.1139-.4226-.3365-.808-.6457-1.11783-.3091-.30984-.694-.53331-1.1163-.64817-1.566-.43-7.831-.437-7.831-.437s-6.26404-.007-7.83104.404c-.42207.12014-.80617.34677-1.11543.65813s-.53328.69699-.65057 1.11987c-.413 1.566-.417 4.81399-.417 4.81399s-.004 3.264.406 4.814c.23.857.905 1.534 1.763 1.765 1.582.43 7.83004.437 7.83004.437s6.265.007 7.831-.403c.4225-.1147.8077-.3376 1.1176-.6468s.5337-.694.6494-1.1162c.414-1.565.417-4.812.417-4.812s.02-3.26499-.407-4.83099zm-11.59704 7.80199.00504-5.99999 5.207 3.00499z" fill="#b6b6b6"/></svg>