<svg width="231" height="31" viewBox="0 0 231 31" fill="none" xmlns="http://www.w3.org/2000/svg">
<path d="M11.746 2.729H0.00100017V23H11.746V19.694H4.061V14.329H10.876V11.11H4.061V6.035H11.746V2.729ZM16.7116 14.909C16.7116 19.926 19.9596 23.261 24.0196 23.261C26.5716 23.261 28.3986 22.043 29.3556 20.651V23H33.4446V6.934H29.3556V9.225C28.3986 7.891 26.6296 6.673 24.0486 6.673C19.9596 6.673 16.7116 9.892 16.7116 14.909ZM29.3556 14.967C29.3556 18.012 27.3256 19.694 25.0926 19.694C22.9176 19.694 20.8586 17.954 20.8586 14.909C20.8586 11.864 22.9176 10.24 25.0926 10.24C27.3256 10.24 29.3556 11.922 29.3556 14.967ZM52.1999 18.418C52.0839 12.531 43.1809 14.358 43.1809 11.429C43.1809 10.501 43.9639 9.892 45.4719 9.892C47.0669 9.892 48.0529 10.733 48.1689 11.98H52.0549C51.8229 8.79 49.4739 6.673 45.5879 6.673C41.6149 6.673 39.2369 8.819 39.2369 11.487C39.2369 17.374 48.3139 15.547 48.3139 18.418C48.3139 19.346 47.4439 20.071 45.8489 20.071C44.2249 20.071 43.0939 19.143 42.9489 17.925H38.8599C39.0339 20.912 41.8469 23.261 45.8779 23.261C49.7929 23.261 52.1999 21.173 52.1999 18.418ZM64.6966 18.157L60.5496 6.934H55.9966L62.4346 22.594L58.9546 30.598H63.2756L73.2226 6.934H68.9016L64.6966 18.157ZM199.283 20.825C199.283 19.491 198.239 18.447 196.818 18.447C195.339 18.447 194.295 19.491 194.295 20.825C194.295 22.159 195.339 23.203 196.818 23.203C198.239 23.203 199.283 22.159 199.283 20.825ZM204.874 23H208.934V6.934H204.874V23ZM206.933 5.02C208.354 5.02 209.427 3.976 209.427 2.642C209.427 1.308 208.354 0.263999 206.933 0.263999C205.483 0.263999 204.439 1.308 204.439 2.642C204.439 3.976 205.483 5.02 206.933 5.02ZM230.78 14.967C230.78 9.892 227.155 6.673 222.515 6.673C217.875 6.673 214.25 9.892 214.25 14.967C214.25 20.013 217.759 23.261 222.399 23.261C227.068 23.261 230.78 20.013 230.78 14.967ZM218.368 14.967C218.368 11.748 220.311 10.211 222.457 10.211C224.603 10.211 226.604 11.748 226.604 14.967C226.604 18.157 224.545 19.723 222.399 19.723C220.224 19.723 218.368 18.157 218.368 14.967Z" fill="white"/>
<path d="M89.4762 2.729H77.7312V23H89.4762V19.694H81.7912V14.329H88.6062V11.11H81.7912V6.035H89.4762V2.729ZM107.956 18.418C107.84 12.531 98.9368 14.358 98.9368 11.429C98.9368 10.501 99.7198 9.892 101.228 9.892C102.823 9.892 103.809 10.733 103.925 11.98H107.811C107.579 8.79 105.23 6.673 101.344 6.673C97.3708 6.673 94.9928 8.819 94.9928 11.487C94.9928 17.374 104.07 15.547 104.07 18.418C104.07 19.346 103.2 20.071 101.605 20.071C99.9808 20.071 98.8498 19.143 98.7048 17.925H94.6158C94.7898 20.912 97.6028 23.261 101.634 23.261C105.549 23.261 107.956 21.173 107.956 18.418ZM112.564 14.967C112.564 20.013 115.87 23.261 120.51 23.261C124.512 23.261 127.209 20.999 128.079 17.577H123.7C123.207 19.027 122.163 19.781 120.481 19.781C118.219 19.781 116.711 18.099 116.711 14.967C116.711 11.835 118.219 10.124 120.481 10.124C122.163 10.124 123.236 10.994 123.7 12.357H128.079C127.209 8.761 124.512 6.673 120.51 6.673C115.87 6.673 112.564 9.921 112.564 14.967ZM137.434 14.996C137.434 11.893 138.884 10.965 141.291 10.965H142.364V6.702C140.131 6.702 138.449 7.775 137.434 9.428V6.934H133.374V23H137.434V14.996ZM162.933 14.967C162.933 9.892 159.308 6.673 154.668 6.673C150.028 6.673 146.403 9.892 146.403 14.967C146.403 20.013 149.912 23.261 154.552 23.261C159.221 23.261 162.933 20.013 162.933 14.967ZM150.521 14.967C150.521 11.748 152.464 10.211 154.61 10.211C156.756 10.211 158.757 11.748 158.757 14.967C158.757 18.157 156.698 19.723 154.552 19.723C152.377 19.723 150.521 18.157 150.521 14.967ZM171.161 23H175.569L178.498 11.777L181.427 23H185.806L190.504 6.934H186.618L183.776 19.143L180.76 6.934H176.468L173.394 19.172L170.552 6.934H166.434L171.161 23Z" fill="#F2AE00"/>
</svg>
