<?xml version="1.0" encoding="UTF-8"?><svg xmlns="http://www.w3.org/2000/svg" viewBox="0 0 80 80"><defs><style>.d{fill:#fff;}.e{fill:#2c223b;}</style></defs><g id="a"/><g id="b"><g id="c"><g><rect class="d" x="19" y="15.38" width="37" height="49.1"/><path class="e" d="M40,0C17.91,0,0,17.91,0,40s17.91,40,40,40,40-17.91,40-40S62.09,0,40,0Zm8.33,61.99c-2.06,.81-3.7,1.43-4.93,1.86-1.23,.43-2.65,.64-4.27,.64-2.49,0-4.43-.61-5.81-1.83s-2.07-2.76-2.07-4.63c0-.73,.05-1.47,.15-2.23,.1-.76,.27-1.61,.5-2.57l2.58-9.1c.23-.87,.42-1.7,.58-2.48,.16-.78,.23-1.49,.23-2.14,0-1.16-.24-1.97-.72-2.43-.48-.46-1.4-.68-2.75-.68-.66,0-1.35,.1-2.05,.3-.69,.21-1.3,.41-1.79,.6l.68-2.8c1.69-.69,3.3-1.28,4.84-1.76,1.54-.49,3-.74,4.37-.74,2.48,0,4.39,.6,5.73,1.79,1.34,1.2,2.01,2.75,2.01,4.66,0,.4-.05,1.09-.14,2.09-.09,1-.26,1.91-.51,2.75l-2.56,9.08c-.21,.73-.4,1.56-.57,2.49-.17,.93-.25,1.64-.25,2.12,0,1.21,.27,2.03,.81,2.47,.54,.44,1.47,.66,2.8,.66,.63,0,1.33-.11,2.12-.33,.79-.22,1.35-.41,1.71-.58l-.69,2.8Zm-.45-36.84c-1.2,1.11-2.63,1.67-4.32,1.67s-3.13-.56-4.33-1.67c-1.2-1.11-1.8-2.46-1.8-4.04s.61-2.93,1.8-4.05c1.21-1.12,2.65-1.68,4.33-1.68s3.13,.56,4.32,1.68c1.2,1.12,1.79,2.48,1.79,4.05s-.6,2.93-1.79,4.04Z"/></g></g></g></svg>