<svg fill="none" height="24" viewBox="0 0 24 24" width="24" xmlns="http://www.w3.org/2000/svg"><path clip-rule="evenodd" d="m7.87727 2.06c1.06637-.04909 1.40637-.06 4.12273-.06 2.7164 0 3.0564.01182 4.1218.06 1.0655.04818 1.7927.21818 2.4291.46455.6664.25181 1.2709.64545 1.7709 1.15454.5091.49909.9018 1.10273 1.1527 1.77.2473.63636.4164 1.36364.4655 2.42727.0491 1.06819.06 1.40819.06 4.12364 0 2.7164-.0118 3.0564-.06 4.1227-.0482 1.0637-.2182 1.7909-.4655 2.4273-.2509.6674-.6442 1.272-1.1527 1.7718-.5.5091-1.1045.9018-1.7709 1.1527-.6364.2473-1.3636.4164-2.4273.4655-1.0672.0491-1.4072.06-4.1236.06-2.71636 0-3.05636-.0118-4.12273-.06-1.06363-.0482-1.79091-.2182-2.42727-.4655-.66734-.2509-1.27198-.6443-1.77182-1.1527-.50874-.4994-.90244-1.1037-1.15363-1.7709-.24637-.6364-.41546-1.3636-.46455-2.4273-.04909-1.0681-.06-1.4081-.06-4.1236 0-2.71636.01182-3.05636.06-4.12182.04818-1.06545.21818-1.79273.46455-2.42909.25156-.6672.64556-1.27153 1.15454-1.77091.49913-.50863 1.10316-.90232 1.77-1.15363.63636-.24637 1.36364-.41546 2.42727-.46455zm8.16363 1.8c-1.0545-.04818-1.3709-.05818-4.0409-.05818s-2.98636.01-4.04091.05818c-.97545.04455-1.50454.20727-1.85727.34455-.46637.18181-.8.39727-1.15.74727-.33178.32277-.58711.71571-.74727 1.15-.13728.35273-.3.88182-.34455 1.85727-.04818 1.05455-.05818 1.37091-.05818 4.04091s.01 2.9864.05818 4.0409c.04455.9755.20727 1.5046.34455 1.8573.16.4336.41545.8273.74727 1.15.32273.3318.71636.5873 1.15.7473.35273.1372.88182.3 1.85727.3445 1.05455.0482 1.37.0582 4.04091.0582 2.6709 0 2.9864-.01 4.0409-.0582.9755-.0445 1.5046-.2073 1.8573-.3445.4663-.1819.8-.3973 1.15-.7473.3318-.3227.5873-.7164.7473-1.15.1372-.3527.3-.8818.3445-1.8573.0482-1.0545.0582-1.3709.0582-4.0409s-.01-2.98636-.0582-4.04091c-.0445-.97545-.2073-1.50454-.3445-1.85727-.1819-.46637-.3973-.8-.7473-1.15-.3228-.33176-.7157-.58708-1.15-.74727-.3527-.13728-.8818-.3-1.8573-.34455zm-5.3182 11.2227c.7134.297 1.5076.337 2.2472.1134s1.3786-.6971 1.8079-1.3395.6223-1.414.5459-2.1829c-.0764-.7688-.4173-1.4874-.9646-2.03279-.3489-.34866-.7707-.61563-1.2352-.78169-.4644-.16605-.9599-.22707-1.4507-.17866-.4909.04841-.9649.20506-1.3879.45865-.42307.25359-.78462.59783-1.05866 1.00789-.27404.4101-.45374.8759-.52617 1.3638s-.03579.9857.10729 1.4578c.14308.472.38904.9064.72017 1.272.33113.3655.73917.6531 1.19477.842zm-2.35725-6.71725c.4773-.47729 1.04393-.8559 1.66755-1.11421.6236-.25831 1.292-.39126 1.967-.39126s1.3434.13295 1.967.39126 1.1903.63692 1.6675 1.11421c.4773.4773.856 1.04393 1.1143 1.66755.2583.6236.3912 1.292.3912 1.967s-.1329 1.3434-.3912 1.967-.637 1.1903-1.1143 1.6675c-.9639.964-2.2713 1.5055-3.6345 1.5055s-2.6706-.5415-3.63455-1.5055c-.96394-.9639-1.50547-2.2713-1.50547-3.6345s.54153-2.6706 1.50547-3.63455zm9.91455-.74c.1183-.11157.213-.24574.2785-.39456.0655-.14883.1004-.30928.1028-.47186s-.0279-.32399-.089-.47466c-.0612-.15067-.1519-.28754-.2669-.40252-.115-.11497-.2518-.20571-.4025-.26683-.1507-.06113-.3121-.09141-.4747-.08904-.1625.00237-.323.03734-.4718.10283-.1488.0655-.283.16019-.3946.27846-.217.23003-.3358.53557-.3312.85176s.1323.61813.3559.84174c.2236.2236.5256.35126.8417.35587.3162.00461.6218-.11419.8518-.33119z" fill="#b6b6b6" fill-rule="evenodd"/></svg>