<?xml version="1.0" encoding="UTF-8"?><svg xmlns="http://www.w3.org/2000/svg" viewBox="0 0 80 80"><defs><style>.d{fill:#2c223b;}.e{fill:#fdfdfd;}</style></defs><g id="a"/><g id="b"><g id="c"><g><g><circle class="d" cx="40" cy="40" r="39.5"/><path class="d" d="M40,1c21.5,0,39,17.5,39,39s-17.5,39-39,39S1,61.5,1,40,18.5,1,40,1m0-1C17.91,0,0,17.91,0,40s17.91,40,40,40,40-17.91,40-40S62.09,0,40,0h0Z"/></g><g><path class="e" d="M44.48,40.09c-.16,.16-.26,.39-.26,.62s.09,.46,.26,.62c.16,.16,.39,.26,.62,.26s.46-.09,.62-.26c.16-.16,.26-.39,.26-.62s-.09-.46-.26-.62c-.16-.16-.39-.26-.62-.26s-.46,.09-.62,.26Z"/><path class="e" d="M54.86,33.25c.16-.16,.26-.39,.26-.62s-.09-.46-.26-.62c-.16-.16-.39-.26-.62-.26s-.46,.09-.62,.26c-.16,.16-.26,.39-.26,.62s.09,.46,.26,.62c.16,.16,.39,.26,.62,.26s.46-.09,.62-.26Z"/><path class="e" d="M26.99,32.44v-1.05h.95c.38,.26,.76,.5,1.16,.74v7.16c0,1.27,1.03,2.3,2.3,2.3h9.74c.49,0,.88-.39,.88-.88s-.39-.88-.88-.88h-6.49c-.34-1.93-1.86-3.45-3.79-3.79v-2.98c1.72,.82,3.55,1.4,5.42,1.73l3.17,.55c.17,.03,.35,.05,.52,.05,.24,0,.48-.03,.71-.09,.92,1.52,2.59,2.48,4.41,2.48,2.84,0,5.16-2.31,5.16-5.16s-2.31-5.16-5.16-5.16c-1.61,0-3.1,.74-4.07,1.98l-4.1-2.27c-.3-.17-.49-.48-.49-.83,0-.52,.42-.95,.95-.95h18.16c.34,1.93,1.86,3.45,3.79,3.79v6.85c-1.93,.34-3.45,1.86-3.79,3.79h-6.49c-.49,0-.88,.39-.88,.88s.39,.88,.88,.88h9.74c1.27,0,2.3-1.03,2.3-2.3v-13.33c0-1.27-1.03-2.31-2.3-2.31h-11.55l-4.39-3.38c-1.14-.88-2.56-1.36-4-1.36h-11.87v-.53c0-.49-.39-.88-.88-.88h-7.73c-.49,0-.88,.39-.88,.88v14.06c0,.49,.39,.88,.88,.88h7.73c.49,0,.88-.39,.88-.88h0Zm5.85,7.39h-1.44c-.3,0-.55-.25-.55-.55v-1.44c.95,.28,1.71,1.03,1.99,1.99Zm12.25-10.61c1.87,0,3.4,1.52,3.4,3.4s-1.52,3.4-3.4,3.4c-1.19,0-2.28-.63-2.89-1.61,.26-.28,.48-.62,.62-1.01,.37-.98,.18-2.06-.41-2.87,.64-.82,1.62-1.31,2.68-1.31h0Zm13.69,10.61h-1.44c.28-.95,1.03-1.71,1.99-1.99v1.44c0,.3-.25,.55-.55,.55Zm.55-13.88v1.44c-.95-.28-1.71-1.03-1.99-1.99h1.44c.3,0,.55,.25,.55,.55Zm-20.48-5.29c1.05,0,2.09,.35,2.92,1l2.58,1.99h-6.98c-1.49,0-2.7,1.21-2.7,2.7,0,.98,.53,1.89,1.39,2.37l4.52,2.5c.55,.31,.8,.98,.58,1.57-.22,.58-.81,.92-1.42,.82l-3.17-.55c-2.81-.49-5.53-1.62-7.85-3.27-.15-.11-.33-.16-.51-.16h-1.23v-8.96h11.87Zm-13.62,10.9h-5.98v-12.3h5.98v12.3Z"/><path class="e" d="M61.62,46.68h-7.73c-.44,0-.81,.33-.87,.76-1.14-.56-2.39-.85-3.68-.85-2.48,0-4.82,1.09-6.42,2.99l-.88,1.05h-5.14c-1.68,0-3.05,1.37-3.05,3.05,0,.27,.04,.54,.1,.79-.81-.34-1.55-.83-2.19-1.47l-4.27-4.27c-1.19-1.19-3.13-1.19-4.32-.01-.58,.58-.9,1.35-.91,2.17,0,.82,.32,1.59,.9,2.17l4.77,4.77c2.33,2.33,5.44,3.62,8.74,3.62h16.35v.18c0,.49,.39,.88,.88,.88h7.73c.49,0,.88-.39,.88-.88v-14.06c0-.49-.39-.88-.88-.88h0Zm-24.96,13.01c-2.83,0-5.5-1.1-7.5-3.11l-4.77-4.77c-.25-.25-.38-.58-.38-.92,0-.35,.14-.68,.39-.92,.51-.5,1.33-.5,1.84,0l4.27,4.27c1.61,1.61,3.75,2.49,6.02,2.49h9.94c.49,0,.88-.39,.88-.88s-.39-.88-.88-.88h-9.57c-.72,0-1.3-.58-1.3-1.3s.58-1.3,1.3-1.3h5.55c.26,0,.51-.11,.67-.31l1.15-1.36c1.26-1.5,3.11-2.36,5.08-2.36,1.32,0,2.58,.38,3.67,1.11v10.24h-16.35Zm24.08,1.05h-5.98v-12.3h5.98v12.3Z"/></g></g></g></g></svg>