<?xml version="1.0" encoding="utf-8"?>
<!-- Generator: Adobe Illustrator 26.3.1, SVG Export Plug-In . SVG Version: 6.00 Build 0)  -->
<svg version="1.1" id="Layer_1" xmlns="http://www.w3.org/2000/svg" xmlns:xlink="http://www.w3.org/1999/xlink" x="0px" y="0px"
	 viewBox="0 0 32 32" style="enable-background:new 0 0 32 32;" xml:space="preserve">
<style type="text/css">
	.st0{fill:none;stroke:#F2AE00;stroke-width:2;stroke-linecap:round;stroke-miterlimit:5.3333;}
</style>
<path class="st0" d="M4,7.3v18c0,0.7,0.6,1.3,1.3,1.3h21.3c0.7,0,1.3-0.6,1.3-1.3v-16"/>
<path class="st0" d="M25.3,5.3H6c-1.1,0-2,0.9-2,2l0,0c0,1.1,0.9,2,2,2h22"/>
<path class="st0" d="M18.7,18.3c0-2,1.6-3.7,3.7-3.7h4.8c0.5,0,0.8,0.4,0.8,0.8v5.6c0,0.5-0.4,0.8-0.8,0.8h-4.8
	C20.3,22,18.7,20.4,18.7,18.3L18.7,18.3z"/>
</svg>
